# xmcd
#
# Track frame offsets:
#	150
#	22063
#	41748
#	61125
#	81129
#	111121
#	136691
#	156063
#	174865
#	193644
#
# Disc length: 2806 seconds
#
# Revision: 1
# Processed by: cddbd v1.5.1PL0 Copyright (c) Steve Scherf et al.
# Submitted via: audiograbber 1.83.01
#
DISCID=770af40a
DTITLE=Toultoutim - Pêle-mêle
DYEAR=1900
DGENRE=
TTITLE0=Caramel mou 
TTITLE1=Au loin 
TTITLE2=Question
TTITLE3=petit gars 
TTITLE4=étoile du sud
TTITLE5=sourire
TTITLE6=la rosée des anges 
TTITLE7=fleur fanée 
TTITLE8=camille 
TTITLE9=t'prends pas la tête 
EXTD=
EXTT0=
EXTT1=
EXTT2=
EXTT3=
EXTT4=
EXTT5=
EXTT6=
EXTT7=
EXTT8=
EXTT9=
PLAYORDER=
